<svg width="29" height="29" viewBox="0 0 29 29" fill="none" xmlns="http://www.w3.org/2000/svg">
<path fill-rule="evenodd" clip-rule="evenodd" d="M24.8071 5.47375C24.9672 5.30195 25.0544 5.07473 25.0502 4.83995C25.0461 4.60517 24.951 4.38116 24.7849 4.21512C24.6189 4.04908 24.3949 3.95397 24.1601 3.94983C23.9253 3.94569 23.6981 4.03284 23.5263 4.19292L4.19298 23.5262C4.10394 23.6092 4.03253 23.7093 3.983 23.8204C3.93346 23.9316 3.90683 24.0516 3.90468 24.1733C3.90254 24.295 3.92492 24.4158 3.9705 24.5287C4.01608 24.6415 4.08392 24.744 4.16998 24.8301C4.25603 24.9161 4.35854 24.984 4.47138 25.0296C4.58423 25.0751 4.7051 25.0975 4.82678 25.0954C4.94846 25.0932 5.06846 25.0666 5.17963 25.0171C5.2908 24.9675 5.39085 24.8961 5.47381 24.8071L9.1411 21.1398C10.7337 21.8745 12.5571 22.3542 14.5001 22.3542C17.6635 22.3542 20.5079 21.0842 22.5572 19.511C23.5843 18.7231 24.4265 17.8483 25.0162 16.9976C25.5962 16.1615 25.9792 15.2842 25.9792 14.5C25.9792 13.7158 25.5962 12.8385 25.0162 12.0036C24.4265 11.1517 23.5843 10.2769 22.5572 9.49025C22.231 9.23892 21.883 8.99483 21.5181 8.76404L24.8071 5.47375ZM18.2821 12.0012L16.953 13.3279C17.1953 13.8352 17.2743 14.4052 17.1793 14.9593C17.0842 15.5135 16.8197 16.0245 16.4221 16.422C16.0246 16.8196 15.5135 17.0841 14.9594 17.1792C14.4053 17.2743 13.8353 17.1952 13.328 16.9529L11.9988 18.2821C12.8702 18.859 13.9142 19.117 14.954 19.0124C15.9938 18.9078 16.9655 18.447 17.7044 17.708C18.4434 16.969 18.9042 15.9974 19.0089 14.9576C19.1135 13.9177 18.8555 12.8737 18.2785 12.0024L18.2821 12.0012Z" fill="black"/>
<path d="M15.3095 10.0412C15.3592 10.0506 15.4104 10.0477 15.4588 10.033C15.5072 10.0183 15.5513 9.99209 15.5874 9.95666L17.9437 7.60042C17.9803 7.56439 18.0068 7.51938 18.0206 7.46989C18.0344 7.4204 18.035 7.36816 18.0223 7.31838C18.0095 7.2686 17.984 7.22304 17.9481 7.18623C17.9123 7.14942 17.8674 7.12266 17.818 7.10862C16.7382 6.80426 15.6218 6.64857 14.4999 6.64583C11.3365 6.64583 8.49208 7.91579 6.44275 9.48904C5.41567 10.2769 4.57346 11.1517 3.98259 12.0024C3.40259 12.8385 3.02075 13.7158 3.02075 14.5C3.02075 15.2842 3.40379 16.1615 3.98259 16.9964C4.55758 17.8034 5.23693 18.5307 6.00292 19.1593C6.06024 19.2067 6.13323 19.2309 6.2075 19.2271C6.28176 19.2233 6.35191 19.1918 6.40409 19.1388L9.95659 15.5863C9.99201 15.5502 10.0182 15.5061 10.0329 15.4577C10.0477 15.4093 10.0505 15.3581 10.0412 15.3084C9.91023 14.5877 9.95593 13.8461 10.1744 13.147C10.3928 12.4479 10.7774 11.8121 11.2953 11.2942C11.8133 10.7763 12.449 10.3917 13.1481 10.1732C13.8472 9.9548 14.5889 9.9091 15.3095 10.04V10.0412Z" fill="black"/>
</svg>
