<svg width="154" height="151" viewBox="0 0 154 151" fill="none" xmlns="http://www.w3.org/2000/svg">
<rect x="1" y="1" width="152" height="149" rx="19" fill="white"/>
<rect x="1" y="1" width="152" height="149" rx="19" stroke="#CD82A6" stroke-width="2"/>
<path d="M77 39.9C71.4599 39.9 66.1468 41.7754 62.2293 45.1135C58.3119 48.4516 56.1111 52.9791 56.1111 57.7C56.1111 62.4209 58.3119 66.9484 62.2293 70.2865C66.1468 73.6246 71.4599 75.5 77 75.5C82.5401 75.5 87.8532 73.6246 91.7707 70.2865C95.6881 66.9484 97.8889 62.4209 97.8889 57.7C97.8889 52.9791 95.6881 48.4516 91.7707 45.1135C87.8532 41.7754 82.5401 39.9 77 39.9ZM45.6667 57.7C45.6667 50.6187 48.9678 43.8275 54.844 38.8202C60.7201 33.813 68.6899 31 77 31C85.3101 31 93.2799 33.813 99.156 38.8202C105.032 43.8275 108.333 50.6187 108.333 57.7C108.333 64.7813 105.032 71.5725 99.156 76.5798C93.2799 81.587 85.3101 84.4 77 84.4C68.6899 84.4 60.7201 81.587 54.844 76.5798C48.9678 71.5725 45.6667 64.7813 45.6667 57.7ZM56.1111 102.2C51.9561 102.2 47.9712 103.607 45.0331 106.11C42.095 108.614 40.4444 112.009 40.4444 115.55C40.4444 116.73 39.8942 117.862 38.9149 118.697C37.9355 119.531 36.6072 120 35.2222 120C33.8372 120 32.5089 119.531 31.5296 118.697C30.5502 117.862 30 116.73 30 115.55C30 109.649 32.751 103.99 37.6478 99.8169C42.5446 95.6442 49.186 93.3 56.1111 93.3H97.8889C104.814 93.3 111.455 95.6442 116.352 99.8169C121.249 103.99 124 109.649 124 115.55C124 116.73 123.45 117.862 122.47 118.697C121.491 119.531 120.163 120 118.778 120C117.393 120 116.064 119.531 115.085 118.697C114.106 117.862 113.556 116.73 113.556 115.55C113.556 112.009 111.905 108.614 108.967 106.11C106.029 103.607 102.044 102.2 97.8889 102.2H56.1111Z" fill="#CD82A6"/>
</svg>
