<svg width="29" height="28" viewBox="0 0 29 28" fill="none" xmlns="http://www.w3.org/2000/svg">
<g clip-path="url(#clip0_67_74)">
<path d="M21.1459 7.58334H21.158M8.45841 2.33334H20.5417C23.8785 2.33334 26.5834 4.94501 26.5834 8.16667V19.8333C26.5834 23.055 23.8785 25.6667 20.5417 25.6667H8.45841C5.12169 25.6667 2.41675 23.055 2.41675 19.8333V8.16667C2.41675 4.94501 5.12169 2.33334 8.45841 2.33334ZM19.3334 13.265C19.4825 14.236 19.3108 15.2276 18.8425 16.0989C18.3743 16.9701 17.6335 17.6766 16.7254 18.118C15.8173 18.5593 14.7882 18.7129 13.7845 18.5569C12.7808 18.401 11.8535 17.9434 11.1347 17.2494C10.4158 16.5553 9.94192 15.66 9.78041 14.6909C9.6189 13.7218 9.77799 12.7282 10.2351 11.8514C10.6921 10.9747 11.4239 10.2594 12.3263 9.80728C13.2287 9.3552 14.2557 9.18936 15.2613 9.33334C16.2871 9.4802 17.2368 9.94171 17.97 10.6497C18.7033 11.3577 19.1813 12.2746 19.3334 13.265Z" stroke="#1E1E1E" stroke-width="4" stroke-linecap="round" stroke-linejoin="round"/>
</g>
<defs>
<clipPath id="clip0_67_74">
<rect width="29" height="28" fill="white"/>
</clipPath>
</defs>
</svg>
