<svg width="24" height="24" viewBox="0 0 24 24" fill="none" xmlns="http://www.w3.org/2000/svg">
<g clip-path="url(#clip0_1_28)">
<path d="M12 18.75C11.59 18.75 11.25 18.41 11.25 18V15C11.25 14.59 11.59 14.25 12 14.25C12.41 14.25 12.75 14.59 12.75 15V18C12.75 18.41 12.41 18.75 12 18.75Z" fill="white"/>
<path d="M14 22.75H8C2.57 22.75 0.25 20.43 0.25 15V9C0.25 3.57 2.57 1.25 8 1.25H14C19.43 1.25 21.75 3.57 21.75 9V15C21.75 20.43 19.43 22.75 14 22.75ZM8 2.75C3.39 2.75 1.75 4.39 1.75 9V15C1.75 19.61 3.39 21.25 8 21.25H14C18.61 21.25 20.25 19.61 20.25 15V9C20.25 4.39 18.61 2.75 14 2.75H8Z" fill="white"/>
<path d="M6.32997 15.238C6.16997 15.238 6.00997 15.188 5.86997 15.078C5.79183 15.0182 5.72623 14.9437 5.6769 14.8586C5.62758 14.7735 5.5955 14.6795 5.5825 14.582C5.5695 14.4845 5.57583 14.3854 5.60113 14.2903C5.62644 14.1953 5.67022 14.1061 5.72997 14.028L8.10997 10.938C8.39997 10.568 8.80997 10.328 9.27997 10.268C9.73997 10.208 10.21 10.338 10.58 10.628L12.41 12.068C12.48 12.128 12.55 12.128 12.6 12.118C12.64 12.118 12.71 12.098 12.77 12.018L15.08 9.038C15.1397 8.95961 15.2145 8.89394 15.3 8.84485C15.3854 8.79576 15.4798 8.76424 15.5776 8.75213C15.6754 8.74002 15.7747 8.74757 15.8695 8.77433C15.9644 8.8011 16.0529 8.84654 16.13 8.908C16.46 9.158 16.52 9.628 16.26 9.958L13.95 12.938C13.66 13.308 13.25 13.548 12.78 13.598C12.31 13.658 11.85 13.528 11.48 13.238L9.64997 11.798C9.62434 11.7755 9.59384 11.7593 9.56086 11.7506C9.52789 11.7419 9.49335 11.741 9.45997 11.748C9.41997 11.748 9.34997 11.768 9.28997 11.848L6.90997 14.938C6.77997 15.138 6.55997 15.238 6.32997 15.238Z" fill="white"/>
</g>
<defs>
<clipPath id="clip0_1_28">
<rect width="24" height="24" fill="white"/>
</clipPath>
</defs>
</svg>
