<svg width="30" height="31" viewBox="0 0 30 31" fill="none" xmlns="http://www.w3.org/2000/svg">
<g filter="url(#filter0_d_1_37)">
<path d="M6.01001 11.22V15.71C6.01001 20.2 7.81001 22 12.3 22H17.69C22.18 22 23.98 20.2 23.98 15.71V11.22" stroke="white" stroke-width="1.5" stroke-linecap="round" stroke-linejoin="round"/>
<path d="M15 12C16.83 12 18.18 10.51 18 8.68L17.34 2H12.67L12 8.68C11.82 10.51 13.17 12 15 12Z" stroke="white" stroke-width="1.5" stroke-linecap="round" stroke-linejoin="round"/>
<path d="M21.3099 12C23.3299 12 24.8099 10.36 24.6099 8.35L24.3299 5.6C23.9699 3 22.9699 2 20.3499 2H17.2999L17.9999 9.01C18.1699 10.66 19.6599 12 21.3099 12ZM8.63988 12C10.2899 12 11.7799 10.66 11.9399 9.01L12.1599 6.8L12.6399 2H9.58988C6.96988 2 5.96988 3 5.60988 5.6L5.33988 8.35C5.13988 10.36 6.61988 12 8.63988 12ZM14.9999 17C13.3299 17 12.4999 17.83 12.4999 19.5V22H17.4999V19.5C17.4999 17.83 16.6699 17 14.9999 17Z" stroke="white" stroke-width="1.5" stroke-linecap="round" stroke-linejoin="round"/>
</g>
<defs>
<filter id="filter0_d_1_37" x="-1" y="0" width="32" height="32" filterUnits="userSpaceOnUse" color-interpolation-filters="sRGB">
<feFlood flood-opacity="0" result="BackgroundImageFix"/>
<feColorMatrix in="SourceAlpha" type="matrix" values="0 0 0 0 0 0 0 0 0 0 0 0 0 0 0 0 0 0 127 0" result="hardAlpha"/>
<feOffset dy="4"/>
<feGaussianBlur stdDeviation="2"/>
<feComposite in2="hardAlpha" operator="out"/>
<feColorMatrix type="matrix" values="0 0 0 0 0 0 0 0 0 0 0 0 0 0 0 0 0 0 0.25 0"/>
<feBlend mode="normal" in2="BackgroundImageFix" result="effect1_dropShadow_1_37"/>
<feBlend mode="normal" in="SourceGraphic" in2="effect1_dropShadow_1_37" result="shape"/>
</filter>
</defs>
</svg>
