<svg width="30" height="31" viewBox="0 0 30 31" fill="none" xmlns="http://www.w3.org/2000/svg">
<g filter="url(#filter0_d_11_95)">
<path d="M6.01001 11.22V15.71C6.01001 20.2 7.81001 22 12.3 22H17.69C22.18 22 23.98 20.2 23.98 15.71V11.22" stroke="white" stroke-width="1.5" stroke-linecap="round" stroke-linejoin="round"/>
<path d="M15 12C16.83 12 18.18 10.51 18 8.68L17.34 2H12.67L12 8.68C11.82 10.51 13.17 12 15 12Z" stroke="white" stroke-width="1.5" stroke-linecap="round" stroke-linejoin="round"/>
<path d="M21.31 12C23.33 12 24.81 10.36 24.61 8.35L24.33 5.6C23.97 3 22.97 2 20.35 2H17.3L18 9.01C18.17 10.66 19.66 12 21.31 12ZM8.64 12C10.29 12 11.78 10.66 11.94 9.01L12.16 6.8L12.64 2H9.59C6.97001 2 5.97 3 5.61 5.6L5.34 8.35C5.14 10.36 6.62 12 8.64 12ZM15 17C13.33 17 12.5 17.83 12.5 19.5V22H17.5V19.5C17.5 17.83 16.67 17 15 17Z" stroke="white" stroke-width="1.5" stroke-linecap="round" stroke-linejoin="round"/>
</g>
<defs>
<filter id="filter0_d_11_95" x="-1" y="0" width="32" height="32" filterUnits="userSpaceOnUse" color-interpolation-filters="sRGB">
<feFlood flood-opacity="0" result="BackgroundImageFix"/>
<feColorMatrix in="SourceAlpha" type="matrix" values="0 0 0 0 0 0 0 0 0 0 0 0 0 0 0 0 0 0 127 0" result="hardAlpha"/>
<feOffset dy="4"/>
<feGaussianBlur stdDeviation="2"/>
<feComposite in2="hardAlpha" operator="out"/>
<feColorMatrix type="matrix" values="0 0 0 0 0 0 0 0 0 0 0 0 0 0 0 0 0 0 0.25 0"/>
<feBlend mode="normal" in2="BackgroundImageFix" result="effect1_dropShadow_11_95"/>
<feBlend mode="normal" in="SourceGraphic" in2="effect1_dropShadow_11_95" result="shape"/>
</filter>
</defs>
</svg>
