<svg width="31" height="32" viewBox="0 0 31 32" fill="none" xmlns="http://www.w3.org/2000/svg">
<g clip-path="url(#clip0_71_138)">
<path d="M15.5001 20C17.6402 20 19.3751 18.2091 19.3751 16C19.3751 13.7909 17.6402 12 15.5001 12C13.36 12 11.6251 13.7909 11.6251 16C11.6251 18.2091 13.36 20 15.5001 20Z" stroke="#1E1E1E" stroke-width="4" stroke-linecap="round" stroke-linejoin="round"/>
<path d="M25.0584 20C24.8865 20.4021 24.8352 20.8483 24.9112 21.2808C24.9871 21.7133 25.1869 22.1124 25.4847 22.4267L25.5622 22.5067C25.8024 22.7543 25.9929 23.0484 26.1229 23.3722C26.2529 23.6959 26.3198 24.0429 26.3198 24.3933C26.3198 24.7438 26.2529 25.0908 26.1229 25.4145C25.9929 25.7382 25.8024 26.0323 25.5622 26.28C25.3222 26.5279 25.0373 26.7246 24.7237 26.8588C24.4101 26.993 24.0739 27.0621 23.7345 27.0621C23.395 27.0621 23.0588 26.993 22.7452 26.8588C22.4316 26.7246 22.1467 26.5279 21.9067 26.28L21.8292 26.2C21.5248 25.8926 21.1382 25.6864 20.7192 25.608C20.3002 25.5296 19.868 25.5825 19.4784 25.76C19.0964 25.929 18.7706 26.2097 18.5411 26.5674C18.3116 26.9251 18.1884 27.3443 18.1867 27.7733V28C18.1867 28.7072 17.9146 29.3855 17.4301 29.8856C16.9456 30.3857 16.2886 30.6667 15.6034 30.6667C14.9183 30.6667 14.2612 30.3857 13.7767 29.8856C13.2923 29.3855 13.0201 28.7072 13.0201 28V27.88C13.0101 27.4387 12.8717 27.0107 12.6229 26.6516C12.3741 26.2925 12.0264 26.019 11.6251 25.8667C11.2355 25.6892 10.8033 25.6362 10.3843 25.7147C9.96531 25.7931 9.57867 25.9993 9.27425 26.3067L9.19675 26.3867C8.95683 26.6346 8.67191 26.8313 8.3583 26.9655C8.04469 27.0997 7.70853 27.1688 7.36904 27.1688C7.02955 27.1688 6.69339 27.0997 6.37978 26.9655C6.06617 26.8313 5.78125 26.6346 5.54133 26.3867C5.30114 26.139 5.1106 25.8449 4.98059 25.5212C4.85059 25.1974 4.78367 24.8504 4.78367 24.5C4.78367 24.1496 4.85059 23.8025 4.98059 23.4788C5.1106 23.1551 5.30114 22.861 5.54133 22.6133L5.61883 22.5333C5.91661 22.2191 6.11636 21.82 6.19234 21.3874C6.26831 20.9549 6.21702 20.5088 6.04508 20.1067C5.88135 19.7123 5.60947 19.376 5.26293 19.1391C4.91639 18.9022 4.51031 18.775 4.09466 18.7733H3.87508C3.18994 18.7733 2.53286 18.4924 2.04839 17.9923C1.56392 17.4922 1.29175 16.8139 1.29175 16.1067C1.29175 15.3994 1.56392 14.7211 2.04839 14.221C2.53286 13.7209 3.18994 13.44 3.87508 13.44H3.99133C4.41887 13.4297 4.8335 13.2868 5.18134 13.03C5.52918 12.7732 5.79413 12.4143 5.94175 12C6.11369 11.5978 6.16498 11.1517 6.089 10.7192C6.01303 10.2867 5.81328 9.88757 5.5155 9.57333L5.438 9.49333C5.19781 9.24567 5.00727 8.95156 4.87726 8.62784C4.74726 8.30411 4.68034 7.9571 4.68034 7.60666C4.68034 7.25622 4.74726 6.90922 4.87726 6.58549C5.00727 6.26176 5.19781 5.96766 5.438 5.71999C5.67792 5.47206 5.96283 5.27537 6.27644 5.14117C6.59006 5.00697 6.92622 4.9379 7.26571 4.9379C7.6052 4.9379 7.94136 5.00697 8.25497 5.14117C8.56858 5.27537 8.85349 5.47206 9.09342 5.71999L9.17092 5.79999C9.47533 6.10738 9.86198 6.31358 10.281 6.392C10.7 6.47043 11.1322 6.41748 11.5217 6.23999H11.6251C12.0071 6.07098 12.3329 5.79034 12.5624 5.43262C12.7919 5.07489 12.9151 4.65571 12.9167 4.22666V3.99999C12.9167 3.29275 13.1889 2.61447 13.6734 2.11438C14.1579 1.61428 14.8149 1.33333 15.5001 1.33333C16.1852 1.33333 16.8423 1.61428 17.3268 2.11438C17.8112 2.61447 18.0834 3.29275 18.0834 3.99999V4.11999C18.0851 4.54904 18.2082 4.96823 18.4377 5.32595C18.6672 5.68367 18.993 5.96431 19.3751 6.13333C19.7647 6.31081 20.1968 6.36376 20.6158 6.28533C21.0349 6.20691 21.4215 6.00071 21.7259 5.69333L21.8034 5.61333C22.0433 5.36539 22.3283 5.1687 22.6419 5.0345C22.9555 4.9003 23.2916 4.83123 23.6311 4.83123C23.9706 4.83123 24.3068 4.9003 24.6204 5.0345C24.934 5.1687 25.2189 5.36539 25.4588 5.61333C25.699 5.86099 25.8896 6.15509 26.0196 6.47882C26.1496 6.80255 26.2165 7.14955 26.2165 7.49999C26.2165 7.85044 26.1496 8.19744 26.0196 8.52117C25.8896 8.8449 25.699 9.139 25.4588 9.38666L25.3813 9.46666C25.0836 9.7809 24.8838 10.18 24.8078 10.6125C24.7319 11.0451 24.7831 11.4912 24.9551 11.8933V12C25.1188 12.3944 25.3907 12.7307 25.7372 12.9676C26.0838 13.2045 26.4899 13.3316 26.9055 13.3333H27.1251C27.8102 13.3333 28.4673 13.6143 28.9518 14.1144C29.4362 14.6145 29.7084 15.2928 29.7084 16C29.7084 16.7072 29.4362 17.3855 28.9518 17.8856C28.4673 18.3857 27.8102 18.6667 27.1251 18.6667H27.0088C26.5932 18.6684 26.1871 18.7955 25.8406 19.0324C25.494 19.2693 25.2222 19.6056 25.0584 20Z" stroke="#1E1E1E" stroke-width="4" stroke-linecap="round" stroke-linejoin="round"/>
</g>
<defs>
<clipPath id="clip0_71_138">
<rect width="31" height="32" fill="white"/>
</clipPath>
</defs>
</svg>
