<svg width="68" height="65" viewBox="0 0 68 65" fill="none" xmlns="http://www.w3.org/2000/svg">
<path d="M45.3333 43.3334L34 32.5001M34 32.5001L22.6667 43.3334M34 32.5001V56.8751M57.7717 49.8063C60.5351 48.3662 62.7182 46.0874 63.9763 43.3297C65.2344 40.5719 65.4959 37.4921 64.7196 34.5765C63.9432 31.6609 62.1732 29.0754 59.6889 27.2281C57.2046 25.3809 54.1474 24.377 51 24.3751H47.43C46.5724 21.2043 44.9739 18.2605 42.7548 15.7652C40.5357 13.2699 37.7537 11.288 34.6179 9.96837C31.4822 8.64875 28.0742 8.02582 24.6503 8.14641C21.2264 8.26699 17.8757 9.12795 14.85 10.6646C11.8243 12.2012 9.20241 14.3735 7.18142 17.0181C5.16044 19.6627 3.79295 22.7109 3.18177 25.9334C2.57059 29.1559 2.73163 32.469 3.65277 35.6235C4.5739 38.7779 6.23118 41.6918 8.5 44.1459" stroke="#1E1E1E" stroke-width="4" stroke-linecap="round" stroke-linejoin="round"/>
</svg>
