<svg width="24" height="25" viewBox="0 0 24 25" fill="none" xmlns="http://www.w3.org/2000/svg">
<path d="M7.50002 16.1067C7.31002 16.1067 7.12002 16.0355 6.97002 15.8829C6.83054 15.7394 6.75232 15.5457 6.75232 15.3439C6.75232 15.1421 6.83054 14.9484 6.97002 14.8049L10.17 11.5504C10.2474 11.4696 10.3416 11.4075 10.4456 11.3687C10.5497 11.3299 10.661 11.3153 10.7714 11.326C10.8817 11.3368 10.9883 11.3726 11.0833 11.4307C11.1782 11.4889 11.2591 11.568 11.32 11.6623L12.41 13.3302L15.96 9.71974C16.25 9.4248 16.73 9.4248 17.02 9.71974C17.31 10.0147 17.31 10.5029 17.02 10.7978L12.82 15.0693C12.7427 15.1501 12.6485 15.2122 12.5444 15.251C12.4403 15.2898 12.329 15.3044 12.2187 15.2937C12.1083 15.2829 12.0017 15.2471 11.9068 15.189C11.8118 15.1308 11.7309 15.0516 11.67 14.9574L10.58 13.2895L8.03002 15.8829C7.88002 16.0355 7.69002 16.1067 7.50002 16.1067Z" fill="#B7B597"/>
<path d="M16.5 13.0546C16.09 13.0546 15.75 12.7088 15.75 12.2918V11.0205H14.5C14.09 11.0205 13.75 10.6747 13.75 10.2577C13.75 9.84075 14.09 9.49496 14.5 9.49496H16.5C16.91 9.49496 17.25 9.84075 17.25 10.2577V12.2918C17.25 12.7088 16.91 13.0546 16.5 13.0546Z" fill="#B7B597"/>
<path d="M15 23.7333H9C3.57 23.7333 1.25 21.3738 1.25 15.8514V9.74921C1.25 4.22675 3.57 1.86725 9 1.86725H15C20.43 1.86725 22.75 4.22675 22.75 9.74921V15.8514C22.75 21.3738 20.43 23.7333 15 23.7333ZM9 3.39279C4.39 3.39279 2.75 5.06072 2.75 9.74921V15.8514C2.75 20.5399 4.39 22.2078 9 22.2078H15C19.61 22.2078 21.25 20.5399 21.25 15.8514V9.74921C21.25 5.06072 19.61 3.39279 15 3.39279H9Z" fill="#B7B597"/>
</svg>
